<?xml version="1.0" encoding="UTF-8"?>
<svg id="Layer_1" xmlns="http://www.w3.org/2000/svg" width="600" height="600" xmlns:xlink="http://www.w3.org/1999/xlink" version="1.1" viewBox="0 0 600 600">
  <!-- Generator: Adobe Illustrator 29.8.1, SVG Export Plug-In . SVG Version: 2.1.1 Build 2)  -->
  <defs>
    <style>
      .st0 {
        fill: url(#radial-gradient);
      }

      .st1 {
        fill: #fff;
      }

      .st2 {
        stroke: #000;
        stroke-linejoin: round;
        stroke-width: 16px;
      }

      .st3 {
        fill: url(#radial-gradient1);
      }

      .st4 {
        display: none;
      }
    </style>
    <radialGradient id="radial-gradient" cx="561.34" cy="237.52" fx="787.37" fy="237.52" r="263.28" gradientTransform="translate(-277.8 -216.25) rotate(-3.17) scale(1 2.33)" gradientUnits="userSpaceOnUse">
      <stop offset=".05" stop-color="#582a86"/>
      <stop offset=".28" stop-color="#45398b"/>
      <stop offset=".74" stop-color="#166298"/>
      <stop offset=".92" stop-color="#02759f"/>
    </radialGradient>
    <radialGradient id="radial-gradient1" cx="317.08" cy="306.74" fx="670.27" fy="306.74" r="411.4" gradientTransform="translate(190.44 -110.25) rotate(29.94)" gradientUnits="userSpaceOnUse">
      <stop offset=".1" stop-color="#0090ff"/>
      <stop offset=".88" stop-color="#582a86"/>
    </radialGradient>
  </defs>
  <g id="Layer_2" class="st4">
    <g id="Layer_1-2">
      <polygon class="st2" points="156 149.3 506.6 149.3 476.7 491 126.1 491 156 149.3"/>
      <g>
        <polygon class="st1" points="123.3 108.2 474.7 108.2 444 459.7 92.5 459.7 123.3 108.2"/>
        <path d="M444,467.7H92.5c-2.2,0-4.4-.9-5.9-2.6s-2.3-3.9-2.1-6.1l30.8-351.5c.4-4.1,3.8-7.3,8-7.3h351.4c2.2,0,4.4.9,5.9,2.6s2.3,3.9,2.1,6.1l-30.7,351.5c-.4,4.1-3.9,7.3-8,7.3h0ZM101.2,451.7h335.4l29.4-335.5H130.6s-29.4,335.5-29.4,335.5Z"/>
      </g>
    </g>
    <polygon class="st2" points="165.3 156.2 427.8 156.2 421.2 224.2 159 224.2 165.3 156.2"/>
    <polygon class="st2" points="154.4 262.7 231.3 262.7 216.5 418 140 418 154.4 262.7"/>
    <polygon class="st2" points="266.4 262.7 417.1 262.7 402 418 251 418 266.4 262.7"/>
  </g>
  <g>
    <path class="st1" d="M165.72,539.02L31.34,306.89,165.21,74.45l268.24-.32,134.34,232.17-133.87,232.44-268.21.27ZM59.21,306.84l120.4,208.04,240.37-.27,119.97-208.31-120.4-208.04-240.37.27-119.97,208.31Z"/>
    <polygon class="st0" points="539.96 306.31 419.99 514.62 179.61 514.89 59.21 306.84 179.18 98.53 419.55 98.27 539.96 306.31"/>
    <path class="st3" d="M447.21,50.47l-295.52.3L4.43,306.47l147.37,256.12,295.71-.87,147.55-255.6L447.21,50.47ZM433.93,538.75l-268.21.27L31.37,306.84,165.21,74.45l268.24-.32,134.34,232.17-133.87,232.44h0Z"/>
    <g>
      <path class="st1" d="M212.7,271.21l.1.06.09-.15c-.06.1-.11.07-.19.09Z"/>
      <path class="st1" d="M212.86,271.16l-.09.15-.1-.06c.11-.07.16-.04.19-.09Z"/>
    </g>
    <g>
      <path class="st1" d="M398.28,208.04v39.41h-197.07v-39.41h197.07M398.28,188.33h-197.07c-10.88,0-19.71,8.82-19.71,19.71v39.41c0,10.88,8.82,19.71,19.71,19.71h197.07c10.88,0,19.71-8.82,19.71-19.71v-39.41c0-10.88-8.82-19.71-19.71-19.71Z"/>
      <path class="st1" d="M240.62,306.58v98.54h-39.41v-98.54h39.41M240.62,286.87h-39.41c-10.88,0-19.71,8.82-19.71,19.71v98.54c0,10.88,8.82,19.71,19.71,19.71h39.41c10.88,0,19.71-8.82,19.71-19.71v-98.54c0-10.88-8.82-19.71-19.71-19.71Z"/>
      <path class="st1" d="M398.28,306.58v98.54h-98.54v-98.54h98.54M398.28,286.87h-98.54c-10.88,0-19.71,8.82-19.71,19.71v98.54c0,10.88,8.82,19.71,19.71,19.71h98.54c10.88,0,19.71-8.82,19.71-19.71v-98.54c0-10.88-8.82-19.71-19.71-19.71Z"/>
    </g>
  </g>
</svg>